<?xml version="1.0" encoding="UTF-8" standalone="no"?><svg xmlns="http://www.w3.org/2000/svg" xmlns:xlink="http://www.w3.org/1999/xlink" contentStyleType="text/css" height="504px" preserveAspectRatio="none" style="width:628px;height:504px;background:#FFFFFF;" version="1.1" viewBox="0 0 628 504" width="628px" zoomAndPan="magnify"><defs/><g><rect fill="#FFD700" height="421.1953" style="stroke:#181818;stroke-width:1.0;" width="10" x="191" y="67.4297"/><rect fill="#0000FF" height="30" style="stroke:#181818;stroke-width:1.0;" width="10" x="396" y="120.6953"/><rect fill="#0000FF" height="30" style="stroke:#181818;stroke-width:1.0;" width="10" x="396" y="312.2266"/><rect fill="#808080" height="30" style="stroke:#181818;stroke-width:1.0;" width="10" x="484.5" y="179.8281"/><rect fill="#808080" height="30" style="stroke:#181818;stroke-width:1.0;" width="10" x="484.5" y="371.3594"/><rect fill="none" height="177.5313" style="stroke:#000000;stroke-width:1.5;" width="398.5" x="144" y="82.4297"/><rect fill="none" height="177.5313" style="stroke:#000000;stroke-width:1.5;" width="398.5" x="144" y="273.9609"/><line style="stroke:#181818;stroke-width:0.5;stroke-dasharray:5.0,5.0;" x1="196" x2="196" y1="36.2969" y2="497.625"/><line style="stroke:#181818;stroke-width:0.5;stroke-dasharray:5.0,5.0;" x1="400.5" x2="400.5" y1="36.2969" y2="497.625"/><line style="stroke:#181818;stroke-width:0.5;stroke-dasharray:5.0,5.0;" x1="489.5" x2="489.5" y1="36.2969" y2="497.625"/><line style="stroke:#181818;stroke-width:0.5;stroke-dasharray:5.0,5.0;" x1="582.5" x2="582.5" y1="36.2969" y2="497.625"/><rect fill="#E2E2F0" height="30.2969" rx="2.5" ry="2.5" style="stroke:#181818;stroke-width:0.5;" width="84" x="154" y="5"/><text fill="#000000" font-family="sans-serif" font-size="14" lengthAdjust="spacing" textLength="70" x="161" y="24.9951">EntryPoint</text><rect fill="#E2E2F0" height="30.2969" rx="2.5" ry="2.5" style="stroke:#181818;stroke-width:0.5;" width="71" x="365.5" y="5"/><text fill="#000000" font-family="sans-serif" font-size="14" lengthAdjust="spacing" textLength="57" x="372.5" y="24.9951">Account</text><rect fill="#E2E2F0" height="30.2969" rx="2.5" ry="2.5" style="stroke:#181818;stroke-width:0.5;" width="86" x="446.5" y="5"/><text fill="#000000" font-family="sans-serif" font-size="14" lengthAdjust="spacing" textLength="72" x="453.5" y="24.9951">Paymaster</text><rect fill="#E2E2F0" height="30.2969" rx="2.5" ry="2.5" style="stroke:#181818;stroke-width:0.5;" width="80" x="542.5" y="5"/><text fill="#000000" font-family="sans-serif" font-size="14" lengthAdjust="spacing" textLength="66" x="549.5" y="24.9951">Account2</text><rect fill="#FFD700" height="421.1953" style="stroke:#181818;stroke-width:1.0;" width="10" x="191" y="67.4297"/><rect fill="#0000FF" height="30" style="stroke:#181818;stroke-width:1.0;" width="10" x="396" y="120.6953"/><rect fill="#0000FF" height="30" style="stroke:#181818;stroke-width:1.0;" width="10" x="396" y="312.2266"/><rect fill="#808080" height="30" style="stroke:#181818;stroke-width:1.0;" width="10" x="484.5" y="179.8281"/><rect fill="#808080" height="30" style="stroke:#181818;stroke-width:1.0;" width="10" x="484.5" y="371.3594"/><polygon fill="#181818" points="179,63.4297,189,67.4297,179,71.4297,183,67.4297" style="stroke:#181818;stroke-width:1.0;"/><line style="stroke:#181818;stroke-width:1.0;" x1="0" x2="185" y1="67.4297" y2="67.4297"/><text fill="#000000" font-family="sans-serif" font-size="13" font-weight="bold" lengthAdjust="spacing" textLength="9" x="7" y="62.3638">1</text><text fill="#000000" font-family="sans-serif" font-size="13" lengthAdjust="spacing" textLength="145" x="20" y="62.3638">handleOps(userOps[]):</text><path d="M144,82.4297 L263,82.4297 L263,89.5625 L253,99.5625 L144,99.5625 L144,82.4297 " fill="#EEEEEE" style="stroke:#000000;stroke-width:1.5;"/><rect fill="none" height="177.5313" style="stroke:#000000;stroke-width:1.5;" width="398.5" x="144" y="82.4297"/><text fill="#000000" font-family="sans-serif" font-size="13" font-weight="bold" lengthAdjust="spacing" textLength="74" x="159" y="95.4966">Validation</text><polygon fill="#181818" points="384,116.6953,394,120.6953,384,124.6953,388,120.6953" style="stroke:#181818;stroke-width:1.0;"/><line style="stroke:#181818;stroke-width:1.0;" x1="201" x2="390" y1="120.6953" y2="120.6953"/><text fill="#000000" font-family="sans-serif" font-size="13" font-weight="bold" lengthAdjust="spacing" textLength="9" x="208" y="115.6294">2</text><text fill="#0000FF" font-family="sans-serif" font-size="13" lengthAdjust="spacing" textLength="98" x="225" y="115.6294">validateUserOp</text><polygon fill="#181818" points="472.5,175.8281,482.5,179.8281,472.5,183.8281,476.5,179.8281" style="stroke:#181818;stroke-width:1.0;"/><line style="stroke:#181818;stroke-width:1.0;" x1="201" x2="478.5" y1="179.8281" y2="179.8281"/><text fill="#000000" font-family="sans-serif" font-size="13" font-weight="bold" lengthAdjust="spacing" textLength="9" x="208" y="174.7622">3</text><text fill="#000000" font-family="sans-serif" font-size="13" lengthAdjust="spacing" textLength="167" x="221" y="174.7622">validatePaymasterUserOp</text><line style="stroke:#181818;stroke-width:1.0;" x1="201" x2="243" y1="238.9609" y2="238.9609"/><line style="stroke:#181818;stroke-width:1.0;" x1="243" x2="243" y1="238.9609" y2="251.9609"/><line style="stroke:#181818;stroke-width:1.0;" x1="202" x2="243" y1="251.9609" y2="251.9609"/><polygon fill="#181818" points="212,247.9609,202,251.9609,212,255.9609,208,251.9609" style="stroke:#181818;stroke-width:1.0;"/><text fill="#000000" font-family="sans-serif" font-size="13" font-weight="bold" lengthAdjust="spacing" textLength="9" x="208" y="233.895">4</text><text fill="#000000" font-family="sans-serif" font-size="13" lengthAdjust="spacing" textLength="168" x="221" y="233.895">deduct paymaster deposit</text><path d="M144,273.9609 L260,273.9609 L260,281.0938 L250,291.0938 L144,291.0938 L144,273.9609 " fill="#EEEEEE" style="stroke:#000000;stroke-width:1.5;"/><rect fill="none" height="177.5313" style="stroke:#000000;stroke-width:1.5;" width="398.5" x="144" y="273.9609"/><text fill="#000000" font-family="sans-serif" font-size="13" font-weight="bold" lengthAdjust="spacing" textLength="71" x="159" y="287.0278">Execution</text><polygon fill="#181818" points="384,308.2266,394,312.2266,384,316.2266,388,312.2266" style="stroke:#181818;stroke-width:1.0;"/><line style="stroke:#181818;stroke-width:1.0;" x1="201" x2="390" y1="312.2266" y2="312.2266"/><text fill="#000000" font-family="sans-serif" font-size="13" font-weight="bold" lengthAdjust="spacing" textLength="9" x="208" y="307.1606">5</text><text fill="#0000FF" font-family="sans-serif" font-size="13" lengthAdjust="spacing" textLength="30" x="225" y="307.1606">exec</text><polygon fill="#181818" points="472.5,367.3594,482.5,371.3594,472.5,375.3594,476.5,371.3594" style="stroke:#181818;stroke-width:1.0;"/><line style="stroke:#181818;stroke-width:1.0;" x1="201" x2="478.5" y1="371.3594" y2="371.3594"/><text fill="#000000" font-family="sans-serif" font-size="13" font-weight="bold" lengthAdjust="spacing" textLength="9" x="208" y="366.2935">6</text><text fill="#808080" font-family="sans-serif" font-size="13" lengthAdjust="spacing" textLength="46" x="225" y="366.2935">postOp</text><line style="stroke:#181818;stroke-width:1.0;" x1="201" x2="243" y1="430.4922" y2="430.4922"/><line style="stroke:#181818;stroke-width:1.0;" x1="243" x2="243" y1="430.4922" y2="443.4922"/><line style="stroke:#181818;stroke-width:1.0;" x1="202" x2="243" y1="443.4922" y2="443.4922"/><polygon fill="#181818" points="212,439.4922,202,443.4922,212,447.4922,208,443.4922" style="stroke:#181818;stroke-width:1.0;"/><text fill="#000000" font-family="sans-serif" font-size="13" font-weight="bold" lengthAdjust="spacing" textLength="9" x="208" y="425.4263">7</text><text fill="#000000" font-family="sans-serif" font-size="13" lengthAdjust="spacing" textLength="114" x="221" y="425.4263">refund paymaster</text><polygon fill="#181818" points="11,475.625,1,479.625,11,483.625,7,479.625" style="stroke:#181818;stroke-width:1.0;"/><line style="stroke:#181818;stroke-width:1.0;stroke-dasharray:2.0,2.0;" x1="5" x2="190" y1="479.625" y2="479.625"/><text fill="#000000" font-family="sans-serif" font-size="13" font-weight="bold" lengthAdjust="spacing" textLength="9" x="17" y="474.5591">8</text><text fill="#000000" font-family="sans-serif" font-size="13" lengthAdjust="spacing" textLength="159" x="30" y="474.5591">compensate(beneficiary)</text><!--SRC=[bP6nRi8m48PtFyM9BY2KXJ5g8tLWXgLTK8UBVG5BYU_as8YyVI-1Kg0izMBhxhxVdsNCYKFkQef6C2PllM18C5k758Sj-v1cW3sGtBVVhULywU7vV3-mnQ73Fb6SHgHxYgzk-PNP5HN9SWalUsvT2GSChgMDzFFSKzHzzxKepJvo5lZ4rZjCdeCXAQfBnCZMRQOINXlMUoot7D_6IWN7Cq4VKvPnX3RvenQk_bEIT9D0nA6y8jUt_6NrOID5Ke8Zbsq2-HdMWd3l4-Wo5Dp5V7qYc_yZJWgOCUI9ygFnBJrMAb25fCeF_8rsf2O7zwizgMgpg7Qb9dL2eLTaNbEWHZyGux0m1-y86kPKy-aR]--></g></svg>