<?xml version="1.0" encoding="UTF-8" standalone="no"?><svg xmlns="http://www.w3.org/2000/svg" xmlns:xlink="http://www.w3.org/1999/xlink" contentStyleType="text/css" height="674px" preserveAspectRatio="none" style="width:633px;height:674px;background:#FFFFFF;" version="1.1" viewBox="0 0 633 674" width="633px" zoomAndPan="magnify"><defs/><g><rect fill="#FFD700" height="591.125" style="stroke:#181818;stroke-width:1.0;" width="10" x="200" y="67.4297"/><rect fill="#808080" height="58.2656" style="stroke:#181818;stroke-width:1.0;" width="10" x="404" y="120.6953"/><rect fill="#0000FF" height="29.1328" style="stroke:#181818;stroke-width:1.0;" width="10" x="487" y="208.0938"/><rect fill="#0000FF" height="30" style="stroke:#181818;stroke-width:1.0;" width="10" x="487" y="440.0234"/><rect fill="#008000" height="29.1328" style="stroke:#181818;stroke-width:1.0;" width="10" x="572.5" y="308.4922"/><rect fill="#008000" height="30" style="stroke:#181818;stroke-width:1.0;" width="10" x="572.5" y="541.2891"/><rect fill="none" height="305.3281" style="stroke:#000000;stroke-width:1.5;" width="474.5" x="153" y="82.4297"/><rect fill="none" height="219.6641" style="stroke:#000000;stroke-width:1.5;" width="474.5" x="153" y="401.7578"/><line style="stroke:#181818;stroke-width:0.5;stroke-dasharray:5.0,5.0;" x1="205" x2="205" y1="36.2969" y2="667.5547"/><line style="stroke:#181818;stroke-width:0.5;stroke-dasharray:5.0,5.0;" x1="409" x2="409" y1="36.2969" y2="667.5547"/><line style="stroke:#181818;stroke-width:0.5;stroke-dasharray:5.0,5.0;" x1="491.5" x2="491.5" y1="36.2969" y2="667.5547"/><line style="stroke:#181818;stroke-width:0.5;stroke-dasharray:5.0,5.0;" x1="577.5" x2="577.5" y1="36.2969" y2="667.5547"/><rect fill="#E2E2F0" height="30.2969" rx="2.5" ry="2.5" style="stroke:#181818;stroke-width:0.5;" width="84" x="163" y="5"/><text fill="#000000" font-family="sans-serif" font-size="14" lengthAdjust="spacing" textLength="70" x="170" y="24.9951">EntryPoint</text><rect fill="#E2E2F0" height="30.2969" rx="2.5" ry="2.5" style="stroke:#181818;stroke-width:0.5;" width="64" x="377" y="5"/><text fill="#000000" font-family="sans-serif" font-size="14" lengthAdjust="spacing" textLength="50" x="384" y="24.9951">Factory</text><rect fill="#E2E2F0" height="30.2969" rx="2.5" ry="2.5" style="stroke:#181818;stroke-width:0.5;" width="71" x="456.5" y="5"/><text fill="#000000" font-family="sans-serif" font-size="14" lengthAdjust="spacing" textLength="57" x="463.5" y="24.9951">Account</text><rect fill="#E2E2F0" height="30.2969" rx="2.5" ry="2.5" style="stroke:#181818;stroke-width:0.5;" width="80" x="537.5" y="5"/><text fill="#000000" font-family="sans-serif" font-size="14" lengthAdjust="spacing" textLength="66" x="544.5" y="24.9951">Account2</text><rect fill="#FFD700" height="591.125" style="stroke:#181818;stroke-width:1.0;" width="10" x="200" y="67.4297"/><rect fill="#808080" height="58.2656" style="stroke:#181818;stroke-width:1.0;" width="10" x="404" y="120.6953"/><rect fill="#0000FF" height="29.1328" style="stroke:#181818;stroke-width:1.0;" width="10" x="487" y="208.0938"/><rect fill="#0000FF" height="30" style="stroke:#181818;stroke-width:1.0;" width="10" x="487" y="440.0234"/><rect fill="#008000" height="29.1328" style="stroke:#181818;stroke-width:1.0;" width="10" x="572.5" y="308.4922"/><rect fill="#008000" height="30" style="stroke:#181818;stroke-width:1.0;" width="10" x="572.5" y="541.2891"/><polygon fill="#181818" points="188,63.4297,198,67.4297,188,71.4297,192,67.4297" style="stroke:#181818;stroke-width:1.0;"/><line style="stroke:#181818;stroke-width:1.0;" x1="0" x2="194" y1="67.4297" y2="67.4297"/><text fill="#000000" font-family="sans-serif" font-size="13" font-weight="bold" lengthAdjust="spacing" textLength="9" x="7" y="62.3638">1</text><text fill="#000000" font-family="sans-serif" font-size="13" lengthAdjust="spacing" textLength="145" x="20" y="62.3638">handleOps(userOps[]):</text><path d="M153,82.4297 L280,82.4297 L280,89.5625 L270,99.5625 L153,99.5625 L153,82.4297 " fill="#EEEEEE" style="stroke:#000000;stroke-width:1.5;"/><rect fill="none" height="305.3281" style="stroke:#000000;stroke-width:1.5;" width="474.5" x="153" y="82.4297"/><text fill="#000000" font-family="sans-serif" font-size="13" font-weight="bold" lengthAdjust="spacing" textLength="82" x="168" y="95.4966">Validations</text><polygon fill="#181818" points="392,116.6953,402,120.6953,392,124.6953,396,120.6953" style="stroke:#181818;stroke-width:1.0;"/><line style="stroke:#181818;stroke-width:1.0;" x1="210" x2="398" y1="120.6953" y2="120.6953"/><text fill="#000000" font-family="sans-serif" font-size="13" font-weight="bold" lengthAdjust="spacing" textLength="9" x="217" y="115.6294">2</text><text fill="#000000" font-family="sans-serif" font-size="13" lengthAdjust="spacing" textLength="107" x="230" y="115.6294">create (initCode)</text><ellipse cx="491.5" cy="149.0781" fill="none" rx="4" ry="4" style="stroke:#181818;stroke-width:1.5;"/><polygon fill="#181818" points="474.5,145.8281,484.5,149.8281,474.5,153.8281,478.5,149.8281" style="stroke:#181818;stroke-width:1.0;"/><line style="stroke:#181818;stroke-width:1.0;" x1="414" x2="480.5" y1="149.8281" y2="149.8281"/><text fill="#000000" font-family="sans-serif" font-size="13" font-weight="bold" lengthAdjust="spacing" textLength="9" x="421" y="144.7622">3</text><text fill="#000000" font-family="sans-serif" font-size="13" lengthAdjust="spacing" textLength="41" x="434" y="144.7622">create</text><polygon fill="#181818" points="221,174.9609,211,178.9609,221,182.9609,217,178.9609" style="stroke:#181818;stroke-width:1.0;"/><line style="stroke:#181818;stroke-width:1.0;stroke-dasharray:2.0,2.0;" x1="215" x2="408" y1="178.9609" y2="178.9609"/><text fill="#000000" font-family="sans-serif" font-size="13" font-weight="bold" lengthAdjust="spacing" textLength="9" x="227" y="173.895">4</text><text fill="#000000" font-family="sans-serif" font-size="13" lengthAdjust="spacing" textLength="51" x="240" y="173.895">account</text><polygon fill="#181818" points="475,204.0938,485,208.0938,475,212.0938,479,208.0938" style="stroke:#181818;stroke-width:1.0;"/><line style="stroke:#181818;stroke-width:1.0;" x1="210" x2="481" y1="208.0938" y2="208.0938"/><text fill="#000000" font-family="sans-serif" font-size="13" font-weight="bold" lengthAdjust="spacing" textLength="9" x="217" y="203.0278">5</text><text fill="#0000FF" font-family="sans-serif" font-size="13" lengthAdjust="spacing" textLength="98" x="234" y="203.0278">validateUserOp</text><polygon fill="#181818" points="221,233.2266,211,237.2266,221,241.2266,217,237.2266" style="stroke:#181818;stroke-width:1.0;"/><line style="stroke:#181818;stroke-width:1.0;stroke-dasharray:2.0,2.0;" x1="215" x2="491" y1="237.2266" y2="237.2266"/><text fill="#000000" font-family="sans-serif" font-size="13" font-weight="bold" lengthAdjust="spacing" textLength="9" x="227" y="232.1606">6</text><text fill="#000000" font-family="sans-serif" font-size="13" lengthAdjust="spacing" textLength="47" x="240" y="232.1606">deposit</text><line style="stroke:#181818;stroke-width:1.0;" x1="210" x2="252" y1="266.3594" y2="266.3594"/><line style="stroke:#181818;stroke-width:1.0;" x1="252" x2="252" y1="266.3594" y2="279.3594"/><line style="stroke:#181818;stroke-width:1.0;" x1="211" x2="252" y1="279.3594" y2="279.3594"/><polygon fill="#181818" points="221,275.3594,211,279.3594,221,283.3594,217,279.3594" style="stroke:#181818;stroke-width:1.0;"/><text fill="#000000" font-family="sans-serif" font-size="13" font-weight="bold" lengthAdjust="spacing" textLength="9" x="217" y="261.2935">7</text><text fill="#000000" font-family="sans-serif" font-size="13" lengthAdjust="spacing" textLength="150" x="230" y="261.2935">deduct account deposit</text><polygon fill="#181818" points="560.5,304.4922,570.5,308.4922,560.5,312.4922,564.5,308.4922" style="stroke:#181818;stroke-width:1.0;"/><line style="stroke:#181818;stroke-width:1.0;" x1="210" x2="566.5" y1="308.4922" y2="308.4922"/><text fill="#000000" font-family="sans-serif" font-size="13" font-weight="bold" lengthAdjust="spacing" textLength="9" x="217" y="303.4263">8</text><text fill="#008000" font-family="sans-serif" font-size="13" lengthAdjust="spacing" textLength="98" x="234" y="303.4263">validateUserOp</text><polygon fill="#181818" points="221,333.625,211,337.625,221,341.625,217,337.625" style="stroke:#181818;stroke-width:1.0;"/><line style="stroke:#181818;stroke-width:1.0;stroke-dasharray:2.0,2.0;" x1="215" x2="576.5" y1="337.625" y2="337.625"/><text fill="#000000" font-family="sans-serif" font-size="13" font-weight="bold" lengthAdjust="spacing" textLength="9" x="227" y="332.5591">9</text><text fill="#000000" font-family="sans-serif" font-size="13" lengthAdjust="spacing" textLength="47" x="240" y="332.5591">deposit</text><line style="stroke:#181818;stroke-width:1.0;" x1="210" x2="252" y1="366.7578" y2="366.7578"/><line style="stroke:#181818;stroke-width:1.0;" x1="252" x2="252" y1="366.7578" y2="379.7578"/><line style="stroke:#181818;stroke-width:1.0;" x1="211" x2="252" y1="379.7578" y2="379.7578"/><polygon fill="#181818" points="221,375.7578,211,379.7578,221,383.7578,217,379.7578" style="stroke:#181818;stroke-width:1.0;"/><text fill="#000000" font-family="sans-serif" font-size="13" font-weight="bold" lengthAdjust="spacing" textLength="18" x="217" y="361.6919">10</text><text fill="#000000" font-family="sans-serif" font-size="13" lengthAdjust="spacing" textLength="158" x="239" y="361.6919">deduct account2 deposit</text><path d="M153,401.7578 L277,401.7578 L277,408.8906 L267,418.8906 L153,418.8906 L153,401.7578 " fill="#EEEEEE" style="stroke:#000000;stroke-width:1.5;"/><rect fill="none" height="219.6641" style="stroke:#000000;stroke-width:1.5;" width="474.5" x="153" y="401.7578"/><text fill="#000000" font-family="sans-serif" font-size="13" font-weight="bold" lengthAdjust="spacing" textLength="79" x="168" y="414.8247">Executions</text><polygon fill="#181818" points="475,436.0234,485,440.0234,475,444.0234,479,440.0234" style="stroke:#181818;stroke-width:1.0;"/><line style="stroke:#181818;stroke-width:1.0;" x1="210" x2="481" y1="440.0234" y2="440.0234"/><text fill="#000000" font-family="sans-serif" font-size="13" font-weight="bold" lengthAdjust="spacing" textLength="18" x="217" y="434.9575">11</text><text fill="#0000FF" font-family="sans-serif" font-size="13" lengthAdjust="spacing" textLength="30" x="243" y="434.9575">exec</text><line style="stroke:#181818;stroke-width:1.0;" x1="210" x2="252" y1="499.1563" y2="499.1563"/><line style="stroke:#181818;stroke-width:1.0;" x1="252" x2="252" y1="499.1563" y2="512.1563"/><line style="stroke:#181818;stroke-width:1.0;" x1="211" x2="252" y1="512.1563" y2="512.1563"/><polygon fill="#181818" points="221,508.1563,211,512.1563,221,516.1563,217,512.1563" style="stroke:#181818;stroke-width:1.0;"/><text fill="#000000" font-family="sans-serif" font-size="13" font-weight="bold" lengthAdjust="spacing" textLength="18" x="217" y="494.0903">12</text><text fill="#000000" font-family="sans-serif" font-size="13" lengthAdjust="spacing" textLength="104" x="239" y="494.0903">refund account1</text><polygon fill="#181818" points="560.5,537.2891,570.5,541.2891,560.5,545.2891,564.5,541.2891" style="stroke:#181818;stroke-width:1.0;"/><line style="stroke:#181818;stroke-width:1.0;" x1="210" x2="566.5" y1="541.2891" y2="541.2891"/><text fill="#000000" font-family="sans-serif" font-size="13" font-weight="bold" lengthAdjust="spacing" textLength="18" x="217" y="536.2231">13</text><text fill="#008000" font-family="sans-serif" font-size="13" lengthAdjust="spacing" textLength="30" x="243" y="536.2231">exec</text><line style="stroke:#181818;stroke-width:1.0;" x1="210" x2="252" y1="600.4219" y2="600.4219"/><line style="stroke:#181818;stroke-width:1.0;" x1="252" x2="252" y1="600.4219" y2="613.4219"/><line style="stroke:#181818;stroke-width:1.0;" x1="211" x2="252" y1="613.4219" y2="613.4219"/><polygon fill="#181818" points="221,609.4219,211,613.4219,221,617.4219,217,613.4219" style="stroke:#181818;stroke-width:1.0;"/><text fill="#000000" font-family="sans-serif" font-size="13" font-weight="bold" lengthAdjust="spacing" textLength="18" x="217" y="595.356">14</text><text fill="#000000" font-family="sans-serif" font-size="13" lengthAdjust="spacing" textLength="104" x="239" y="595.356">refund account2</text><polygon fill="#181818" points="11,645.5547,1,649.5547,11,653.5547,7,649.5547" style="stroke:#181818;stroke-width:1.0;"/><line style="stroke:#181818;stroke-width:1.0;stroke-dasharray:2.0,2.0;" x1="5" x2="199" y1="649.5547" y2="649.5547"/><text fill="#000000" font-family="sans-serif" font-size="13" font-weight="bold" lengthAdjust="spacing" textLength="18" x="17" y="644.4888">15</text><text fill="#000000" font-family="sans-serif" font-size="13" lengthAdjust="spacing" textLength="159" x="39" y="644.4888">compensate(beneficiary)</text><!--SRC=[dL9DJyCm3BtdLqJZqcdgWHuhg8JGkC85BXM7D76tI9qTkScq_dkIVh1DOXBGInm_-xrdfofumd1eW8LJxAssJg6Ngorw7jx8ebz9rKjmr_2Bqfvu6B4snjVeazOKvaurnJyM59SLXQZp2jnc8-zsr9bIxXMQ3bvTduKUE9xrvxeKEwRWv8Vgh57U4lO2N5ub3sCdgw6Kca5va9b5wv_9m5eaFAzeqLfA18CFZDyc4zKS9xQc2r3AXvQYPqqTyMFALF8ugSFxw6iXCU2ejnC9k3BUJT1-uLvW6JznALHClW7mMcfC_K-hEEDeverjJw33UM6_c19YXp0GDsUFQPsNIqgQ36r0iwJl_p3J3URY1dKnZX6nlAhZoz710VQnBsi0eOq_bU9XBVRMW6o9V4EdBm00]--></g></svg>